<svg width="205" height="47" viewBox="0 0 205 47" fill="none" xmlns="http://www.w3.org/2000/svg">
<path d="M63.022 41.34C55.508 41.34 50.85 36.716 50.85 29.61C50.85 22.504 55.508 17.88 63.022 17.88C70.094 17.88 74.65 21.416 74.65 27.196V27.706H68.972V27.196C68.972 24.204 67.272 22.776 63.124 22.776C58.126 22.776 56.256 24.544 56.256 29.61C56.256 34.676 58.126 36.444 63.124 36.444C67.272 36.444 68.972 35.016 68.972 32.024V31.514H74.65V32.024C74.65 37.804 70.128 41.34 63.022 41.34Z" fill="white"/>
<path d="M82.096 41.34C78.424 41.34 76.214 39.64 76.214 36.784C76.214 34.268 78.084 32.704 81.722 32.33L89.032 31.582V30.936C89.032 28.726 88.046 28.114 85.326 28.114C82.742 28.114 81.688 28.794 81.688 30.732V30.868H76.554V30.766C76.554 26.55 80.09 23.626 85.7 23.626C91.378 23.626 94.064 26.55 94.064 31.004V41H89.304V37.09H89.032C88.25 39.742 85.87 41.34 82.096 41.34ZM81.348 36.444C81.348 37.362 82.062 37.736 83.558 37.736C87.026 37.736 88.896 36.92 89.032 34.506L83.116 35.186C81.892 35.288 81.348 35.628 81.348 36.444Z" fill="white"/>
<path d="M101.749 41H96.6491V18.22H101.749V41Z" fill="white"/>
<path d="M113.463 41.34C107.785 41.34 103.909 38.552 103.909 32.5C103.909 27.06 107.751 23.626 113.361 23.626C118.937 23.626 122.643 26.55 122.643 31.888C122.643 32.5 122.575 32.942 122.507 33.52H108.635C108.771 36.138 109.995 37.26 113.293 37.26C116.319 37.26 117.373 36.478 117.373 35.016V34.676H122.473V35.05C122.473 38.756 118.869 41.34 113.463 41.34ZM113.259 27.604C110.233 27.604 108.941 28.624 108.703 30.834H117.747C117.611 28.59 116.251 27.604 113.259 27.604Z" fill="white"/>
<path d="M129.905 41H124.805V23.966H129.531V29.202H129.837C130.279 26.346 132.319 23.626 136.773 23.626C141.431 23.626 143.641 26.618 143.641 30.392V41H138.541V32.092C138.541 29.372 137.419 28.216 134.291 28.216C131.061 28.216 129.905 29.508 129.905 32.398V41Z" fill="white"/>
<path d="M153.837 41.34C148.533 41.34 145.609 37.872 145.609 32.5C145.609 27.06 148.499 23.626 153.565 23.626C157.611 23.626 159.685 25.632 160.263 28.488H160.569V18.22H165.669V41H160.909V36.274H160.637C159.991 39.64 157.747 41.34 153.837 41.34ZM150.777 32.5C150.777 35.594 152.307 36.682 155.571 36.682C158.801 36.682 160.569 35.56 160.569 32.602V32.33C160.569 29.372 158.835 28.284 155.571 28.284C152.307 28.284 150.777 29.372 150.777 32.5Z" fill="white"/>
<path d="M173.604 41.34C169.932 41.34 167.722 39.64 167.722 36.784C167.722 34.268 169.592 32.704 173.23 32.33L180.54 31.582V30.936C180.54 28.726 179.554 28.114 176.834 28.114C174.25 28.114 173.196 28.794 173.196 30.732V30.868H168.062V30.766C168.062 26.55 171.598 23.626 177.208 23.626C182.886 23.626 185.572 26.55 185.572 31.004V41H180.812V37.09H180.54C179.758 39.742 177.378 41.34 173.604 41.34ZM172.856 36.444C172.856 37.362 173.57 37.736 175.066 37.736C178.534 37.736 180.404 36.92 180.54 34.506L174.624 35.186C173.4 35.288 172.856 35.628 172.856 36.444Z" fill="white"/>
<path d="M193.257 41H188.157V23.966H192.883V28.488H193.189C193.665 25.734 195.467 23.626 198.901 23.626C202.709 23.626 204.273 26.244 204.273 29.576V32.398H199.173V30.63C199.173 28.76 198.425 27.944 196.351 27.944C194.073 27.944 193.257 28.998 193.257 31.14V41Z" fill="white"/>
<path fill-rule="evenodd" clip-rule="evenodd" d="M1.64999 5.36269C-3.16067 13.1186 6.19066 23.7299 11.4677 28.066C10.895 28.2297 9.38138 28.9006 7.90873 30.275C6.43608 31.6495 5.74066 33.5476 5.57704 34.3248L5.20887 36.4111C5.04525 37.4338 5.08615 40.1173 6.5588 42.6698C8.03145 45.2224 11.0177 46.106 12.3267 46.2288L25.0896 46.5969C26.0305 46.556 28.1577 46.4251 29.1394 46.2288C30.2032 46.016 30.9903 45.4344 32.0603 44.6439C32.2247 44.5224 32.3958 44.396 32.5756 44.2652C33.6556 43.4798 34.9127 41.8362 35.3982 39.8473C35.8307 38.0756 35.1528 35.1839 35.1528 35.1839C34.9482 34.4885 34.2937 32.7049 33.3119 31.1341C32.3302 29.5633 30.0394 28.0661 29.1394 27.6979C30.0803 26.7979 32.1829 24.8262 33.0665 24.139C34.171 23.2799 36.5027 19.8438 38.4662 16.7757C40.037 14.3213 40.1025 10.2715 39.9389 8.55345L39.9338 8.499C39.8799 7.90723 39.7814 6.82575 37.1163 3.39917C34.3673 -0.13519 29.6463 -0.102167 28.1577 1.06747C27.585 1.51745 25.8751 3.64461 23.617 8.55345C21.3589 13.4623 20.7126 17.7984 20.6717 19.3529H20.3035C20.1399 19.3938 19.6408 18.4693 18.9536 14.444C18.2664 10.4188 15.5583 5.15816 14.2902 3.031C13.079 0.732401 6.46065 -2.39327 1.64999 5.36269ZM17.7423 34.9715C17.7423 36.327 16.6434 37.4259 15.2878 37.4259C13.9323 37.4259 12.8334 36.327 12.8334 34.9715C12.8334 33.6159 13.9323 32.5171 15.2878 32.5171C16.6434 32.5171 17.7423 33.6159 17.7423 34.9715ZM25.5964 36.4441C26.9519 36.4441 28.0508 35.3452 28.0508 33.9897C28.0508 32.6342 26.9519 31.5353 25.5964 31.5353C24.2409 31.5353 23.142 32.6342 23.142 33.9897C23.142 35.3452 24.2409 36.4441 25.5964 36.4441Z" fill="#DDFB24"/>
</svg>
